<svg width="30" height="60" viewBox="0 0 30 60" fill="none" xmlns="http://www.w3.org/2000/svg">
<g clip-path="url(#clip0_102:2)">
<path d="M-1.1461 45.996L-10.7117 36.4304C-11.763 35.3791 -11.3404 33.589 -9.92998 33.1188L4.41849 28.336C5.982 27.8148 7.46948 29.3023 6.94831 30.8658L2.16548 45.2143C1.69533 46.6247 -0.0947937 47.0473 -1.1461 45.996Z" fill="#1CA038"/>
<path d="M-7 22.7639L-7 9.23607C-7 7.7493 -5.43537 6.78231 -4.10557 7.44721L9.42229 14.2111C10.8964 14.9482 10.8964 17.0518 9.42229 17.7889L-4.10557 24.5528C-5.43538 25.2177 -7 24.2507 -7 22.7639Z" fill="#1CA038"/>
<path d="M37.7351 6.42164L27.3974 9.86754C26.2029 10.2657 25.2657 11.2029 24.8675 12.3974L21.4216 22.7351C21.1479 23.5562 21.1479 24.4438 21.4216 25.2649L24.8675 35.6026C25.2657 36.7971 26.2029 37.7343 27.3974 38.1325L37.7351 41.5784C38.5562 41.8521 39.4438 41.8521 40.2649 41.5784L50.6026 38.1325C51.7971 37.7343 52.7343 36.7971 53.1325 35.6026L56.5784 25.2649C56.8521 24.4438 56.8521 23.5562 56.5784 22.7351L53.1325 12.3974C52.7343 11.2029 51.7971 10.2657 50.6026 9.86754L40.2649 6.42164C39.4438 6.14795 38.5562 6.14795 37.7351 6.42164Z" fill="#1CA038"/>
<path d="M28.1347 58.9546L20.7633 47.6115C19.9532 46.3649 20.7382 44.7015 22.2156 44.5344L37.2443 42.8345C38.882 42.6493 40.0283 44.4132 39.1939 45.8344L31.5365 58.8774C30.7837 60.1595 28.9449 60.2013 28.1347 58.9546Z" fill="#1CA038"/>
</g>
<defs>
<clipPath id="clip0_102:2">
<rect width="30" height="60" fill="white"/>
</clipPath>
</defs>
</svg>
