<svg width="64" height="39" viewBox="0 0 64 39" fill="none" xmlns="http://www.w3.org/2000/svg">
<path d="M62.9131 26.1101H56.7026L55.8227 0H63.7929L62.9131 26.1101ZM59.8078 30.1987C61.0672 30.1987 62.0764 30.5696 62.8355 31.3114C63.6118 32.0532 63.9999 33.0021 63.9999 34.1579C63.9999 35.2965 63.6118 36.2367 62.8355 36.9785C62.0764 37.7203 61.0672 38.0912 59.8078 38.0912C58.5657 38.0912 57.5565 37.7203 56.7802 36.9785C56.0211 36.2367 55.6416 35.2965 55.6416 34.1579C55.6416 33.0193 56.0211 32.0791 56.7802 31.3373C57.5565 30.5782 58.5657 30.1987 59.8078 30.1987Z" fill="#25A737"/>
<path d="M25.9603 5.31901H16.1978V31.8703H9.63112V5.31901H0V0H25.9603V5.31901Z" fill="white"/>
<path d="M53.1418 17.0952C53.1418 20.0721 52.6602 22.6623 51.6971 24.8658C50.734 27.0547 49.3988 28.8131 47.6914 30.141L52.9885 34.2999L48.8078 37.9992L42.0222 32.5488C41.2488 32.6802 40.4462 32.7458 39.6144 32.7458C36.9732 32.7458 34.6164 32.111 32.5443 30.8415C30.4721 29.5719 28.867 27.7625 27.7287 25.413C26.5905 23.049 26.0141 20.3348 25.9995 17.2704V15.6944C25.9995 12.5569 26.5613 9.79894 27.685 7.42034C28.8232 5.02716 30.4211 3.19578 32.4786 1.92623C34.5508 0.642075 36.9148 0 39.5706 0C42.2265 0 44.5832 0.642075 46.6408 1.92623C48.7129 3.19578 50.3108 5.02716 51.4344 7.42034C52.5727 9.79894 53.1418 12.5496 53.1418 15.6725V17.0952ZM46.4875 15.6506C46.4875 12.3089 45.8892 9.76976 44.6926 8.03323C43.4961 6.29671 41.7887 5.42845 39.5706 5.42845C37.3672 5.42845 35.6671 6.28942 34.4705 8.01135C33.2739 9.71868 32.6683 12.2286 32.6537 15.5411V17.0952C32.6537 20.3494 33.252 22.8739 34.4486 24.6688C35.6452 26.4637 37.3672 27.3612 39.6144 27.3612C41.8179 27.3612 43.5106 26.5002 44.6926 24.7783C45.8747 23.0417 46.4729 20.5172 46.4875 17.2047V15.6506Z" fill="white"/>
</svg>
